<svg xmlns="http://www.w3.org/2000/svg" xmlns:xlink="http://www.w3.org/1999/xlink" width="1080" zoomAndPan="magnify" viewBox="0 0 810 809.999993" height="1080" preserveAspectRatio="xMidYMid meet" version="1.0"><defs><g/></defs><g fill="#f77e65" fill-opacity="1"><g transform="translate(67.476563, 375.907875)"><g><path d="M 19.40625 -51.46875 L 19.40625 -106.109375 L 144.515625 -285.0625 L 220.125 -285.0625 L 220.125 -110.0625 L 252.59375 -110.0625 L 252.59375 -51.46875 L 220.125 -51.46875 L 220.125 0 L 152.4375 0 L 152.4375 -51.46875 Z M 157.1875 -210.625 L 90.671875 -110.0625 L 157.1875 -110.0625 Z M 157.1875 -210.625 "/></g></g></g><g fill="#f77e65" fill-opacity="1"><g transform="translate(335.512239, 375.907875)"><g><path d="M 17.8125 -148.46875 C 17.8125 -193.863281 26.585938 -229.628906 44.140625 -255.765625 C 61.691406 -281.898438 90.003906 -294.96875 129.078125 -294.96875 C 168.140625 -294.96875 196.445312 -281.898438 214 -255.765625 C 231.550781 -229.628906 240.328125 -193.863281 240.328125 -148.46875 C 240.328125 -102.539062 231.550781 -66.507812 214 -40.375 C 196.445312 -14.25 168.140625 -1.1875 129.078125 -1.1875 C 90.003906 -1.1875 61.691406 -14.25 44.140625 -40.375 C 26.585938 -66.507812 17.8125 -102.539062 17.8125 -148.46875 Z M 173.8125 -148.46875 C 173.8125 -175.125 170.90625 -195.644531 165.09375 -210.03125 C 159.289062 -224.414062 147.285156 -231.609375 129.078125 -231.609375 C 110.859375 -231.609375 98.84375 -224.414062 93.03125 -210.03125 C 87.226562 -195.644531 84.328125 -175.125 84.328125 -148.46875 C 84.328125 -130.519531 85.382812 -115.671875 87.5 -103.921875 C 89.613281 -92.179688 93.898438 -82.679688 100.359375 -75.421875 C 106.828125 -68.160156 116.398438 -64.53125 129.078125 -64.53125 C 141.742188 -64.53125 151.304688 -68.160156 157.765625 -75.421875 C 164.234375 -82.679688 168.523438 -92.179688 170.640625 -103.921875 C 172.753906 -115.671875 173.8125 -130.519531 173.8125 -148.46875 Z M 173.8125 -148.46875 "/></g></g></g><g fill="#f77e65" fill-opacity="1"><g transform="translate(593.650061, 375.907875)"><g><path d="M 10.6875 -226.078125 L 10.6875 -289.015625 L 120.359375 -289.015625 L 120.359375 0 L 49.890625 0 L 49.890625 -226.078125 Z M 10.6875 -226.078125 "/></g></g></g><g fill="#f77e65" fill-opacity="1"><g transform="translate(62.0625, 532.065761)"><g><path d="M 33.90625 -41.8125 L 20.28125 -15.78125 L 20.28125 0 L 14.8125 0 L 14.8125 -15.78125 L 1.140625 -41.8125 L 7.203125 -41.8125 L 17.515625 -20.640625 L 27.84375 -41.8125 Z M 33.90625 -41.8125 "/></g></g></g><g fill="#f77e65" fill-opacity="1"><g transform="translate(97.102465, 532.065761)"><g><path d="M 18.953125 0.546875 C 15.878906 0.546875 13.09375 -0.148438 10.59375 -1.546875 C 8.09375 -2.953125 6.128906 -4.945312 4.703125 -7.53125 C 3.285156 -10.113281 2.578125 -13.101562 2.578125 -16.5 C 2.578125 -19.863281 3.304688 -22.832031 4.765625 -25.40625 C 6.222656 -27.988281 8.210938 -29.96875 10.734375 -31.34375 C 13.253906 -32.726562 16.078125 -33.421875 19.203125 -33.421875 C 22.316406 -33.421875 25.132812 -32.726562 27.65625 -31.34375 C 30.175781 -29.96875 32.164062 -28 33.625 -25.4375 C 35.082031 -22.875 35.8125 -19.894531 35.8125 -16.5 C 35.8125 -13.101562 35.0625 -10.113281 33.5625 -7.53125 C 32.0625 -4.945312 30.03125 -2.953125 27.46875 -1.546875 C 24.914062 -0.148438 22.078125 0.546875 18.953125 0.546875 Z M 18.953125 -4.265625 C 20.921875 -4.265625 22.765625 -4.722656 24.484375 -5.640625 C 26.203125 -6.554688 27.585938 -7.9375 28.640625 -9.78125 C 29.703125 -11.625 30.234375 -13.863281 30.234375 -16.5 C 30.234375 -19.132812 29.710938 -21.375 28.671875 -23.21875 C 27.640625 -25.0625 26.28125 -26.429688 24.59375 -27.328125 C 22.914062 -28.234375 21.097656 -28.6875 19.140625 -28.6875 C 17.140625 -28.6875 15.304688 -28.234375 13.640625 -27.328125 C 11.984375 -26.429688 10.65625 -25.0625 9.65625 -23.21875 C 8.65625 -21.375 8.15625 -19.132812 8.15625 -16.5 C 8.15625 -13.820312 8.644531 -11.5625 9.625 -9.71875 C 10.601562 -7.875 11.910156 -6.503906 13.546875 -5.609375 C 15.191406 -4.710938 16.992188 -4.265625 18.953125 -4.265625 Z M 18.953125 -4.265625 "/></g></g></g><g fill="#f77e65" fill-opacity="1"><g transform="translate(135.502426, 532.065761)"><g><path d="M 33.78125 -32.875 L 33.78125 0 L 28.3125 0 L 28.3125 -4.859375 C 27.28125 -3.179688 25.832031 -1.867188 23.96875 -0.921875 C 22.113281 0.015625 20.0625 0.484375 17.8125 0.484375 C 15.257812 0.484375 12.960938 -0.046875 10.921875 -1.109375 C 8.878906 -2.171875 7.265625 -3.757812 6.078125 -5.875 C 4.898438 -8 4.3125 -10.582031 4.3125 -13.625 L 4.3125 -32.875 L 9.71875 -32.875 L 9.71875 -14.34375 C 9.71875 -11.101562 10.535156 -8.613281 12.171875 -6.875 C 13.816406 -5.132812 16.0625 -4.265625 18.90625 -4.265625 C 21.820312 -4.265625 24.117188 -5.160156 25.796875 -6.953125 C 27.472656 -8.753906 28.3125 -11.375 28.3125 -14.8125 L 28.3125 -32.875 Z M 33.78125 -32.875 "/></g></g></g><g fill="#f77e65" fill-opacity="1"><g transform="translate(173.902388, 532.065761)"><g/></g></g><g fill="#f77e65" fill-opacity="1"><g transform="translate(189.922375, 532.065761)"><g><path d="M 16.265625 0.546875 C 13.742188 0.546875 11.484375 0.113281 9.484375 -0.75 C 7.484375 -1.613281 5.898438 -2.8125 4.734375 -4.34375 C 3.578125 -5.882812 2.9375 -7.65625 2.8125 -9.65625 L 8.453125 -9.65625 C 8.617188 -8.019531 9.390625 -6.679688 10.765625 -5.640625 C 12.148438 -4.597656 13.960938 -4.078125 16.203125 -4.078125 C 18.273438 -4.078125 19.910156 -4.535156 21.109375 -5.453125 C 22.316406 -6.378906 22.921875 -7.539062 22.921875 -8.9375 C 22.921875 -10.375 22.28125 -11.441406 21 -12.140625 C 19.71875 -12.847656 17.738281 -13.539062 15.0625 -14.21875 C 12.625 -14.863281 10.632812 -15.515625 9.09375 -16.171875 C 7.550781 -16.828125 6.226562 -17.804688 5.125 -19.109375 C 4.03125 -20.410156 3.484375 -22.117188 3.484375 -24.234375 C 3.484375 -25.921875 3.984375 -27.460938 4.984375 -28.859375 C 5.984375 -30.253906 7.398438 -31.363281 9.234375 -32.1875 C 11.078125 -33.007812 13.179688 -33.421875 15.546875 -33.421875 C 19.179688 -33.421875 22.117188 -32.5 24.359375 -30.65625 C 26.597656 -28.820312 27.796875 -26.300781 27.953125 -23.09375 L 22.5 -23.09375 C 22.375 -24.820312 21.679688 -26.203125 20.421875 -27.234375 C 19.171875 -28.273438 17.484375 -28.796875 15.359375 -28.796875 C 13.398438 -28.796875 11.835938 -28.375 10.671875 -27.53125 C 9.515625 -26.695312 8.9375 -25.597656 8.9375 -24.234375 C 8.9375 -23.160156 9.285156 -22.269531 9.984375 -21.5625 C 10.691406 -20.863281 11.570312 -20.304688 12.625 -19.890625 C 13.6875 -19.472656 15.160156 -19.003906 17.046875 -18.484375 C 19.398438 -17.835938 21.316406 -17.203125 22.796875 -16.578125 C 24.273438 -15.960938 25.546875 -15.035156 26.609375 -13.796875 C 27.671875 -12.554688 28.222656 -10.9375 28.265625 -8.9375 C 28.265625 -7.132812 27.765625 -5.515625 26.765625 -4.078125 C 25.765625 -2.640625 24.351562 -1.507812 22.53125 -0.6875 C 20.707031 0.132812 18.617188 0.546875 16.265625 0.546875 Z M 16.265625 0.546875 "/></g></g></g><g fill="#f77e65" fill-opacity="1"><g transform="translate(221.242347, 532.065761)"><g><path d="M 20.9375 -33.484375 C 23.414062 -33.484375 25.65625 -32.953125 27.65625 -31.890625 C 29.65625 -30.828125 31.222656 -29.234375 32.359375 -27.109375 C 33.503906 -24.992188 34.078125 -22.414062 34.078125 -19.375 L 34.078125 0 L 28.6875 0 L 28.6875 -18.59375 C 28.6875 -21.875 27.863281 -24.382812 26.21875 -26.125 C 24.582031 -27.863281 22.34375 -28.734375 19.5 -28.734375 C 16.625 -28.734375 14.332031 -27.832031 12.625 -26.03125 C 10.925781 -24.238281 10.078125 -21.625 10.078125 -18.1875 L 10.078125 0 L 4.625 0 L 4.625 -44.40625 L 10.078125 -44.40625 L 10.078125 -28.203125 C 11.160156 -29.878906 12.648438 -31.175781 14.546875 -32.09375 C 16.453125 -33.019531 18.582031 -33.484375 20.9375 -33.484375 Z M 20.9375 -33.484375 "/></g></g></g><g fill="#f77e65" fill-opacity="1"><g transform="translate(259.642308, 532.065761)"><g><path d="M 18.953125 0.546875 C 15.878906 0.546875 13.09375 -0.148438 10.59375 -1.546875 C 8.09375 -2.953125 6.128906 -4.945312 4.703125 -7.53125 C 3.285156 -10.113281 2.578125 -13.101562 2.578125 -16.5 C 2.578125 -19.863281 3.304688 -22.832031 4.765625 -25.40625 C 6.222656 -27.988281 8.210938 -29.96875 10.734375 -31.34375 C 13.253906 -32.726562 16.078125 -33.421875 19.203125 -33.421875 C 22.316406 -33.421875 25.132812 -32.726562 27.65625 -31.34375 C 30.175781 -29.96875 32.164062 -28 33.625 -25.4375 C 35.082031 -22.875 35.8125 -19.894531 35.8125 -16.5 C 35.8125 -13.101562 35.0625 -10.113281 33.5625 -7.53125 C 32.0625 -4.945312 30.03125 -2.953125 27.46875 -1.546875 C 24.914062 -0.148438 22.078125 0.546875 18.953125 0.546875 Z M 18.953125 -4.265625 C 20.921875 -4.265625 22.765625 -4.722656 24.484375 -5.640625 C 26.203125 -6.554688 27.585938 -7.9375 28.640625 -9.78125 C 29.703125 -11.625 30.234375 -13.863281 30.234375 -16.5 C 30.234375 -19.132812 29.710938 -21.375 28.671875 -23.21875 C 27.640625 -25.0625 26.28125 -26.429688 24.59375 -27.328125 C 22.914062 -28.234375 21.097656 -28.6875 19.140625 -28.6875 C 17.140625 -28.6875 15.304688 -28.234375 13.640625 -27.328125 C 11.984375 -26.429688 10.65625 -25.0625 9.65625 -23.21875 C 8.65625 -21.375 8.15625 -19.132812 8.15625 -16.5 C 8.15625 -13.820312 8.644531 -11.5625 9.625 -9.71875 C 10.601562 -7.875 11.910156 -6.503906 13.546875 -5.609375 C 15.191406 -4.710938 16.992188 -4.265625 18.953125 -4.265625 Z M 18.953125 -4.265625 "/></g></g></g><g fill="#f77e65" fill-opacity="1"><g transform="translate(298.04227, 532.065761)"><g><path d="M 33.78125 -32.875 L 33.78125 0 L 28.3125 0 L 28.3125 -4.859375 C 27.28125 -3.179688 25.832031 -1.867188 23.96875 -0.921875 C 22.113281 0.015625 20.0625 0.484375 17.8125 0.484375 C 15.257812 0.484375 12.960938 -0.046875 10.921875 -1.109375 C 8.878906 -2.171875 7.265625 -3.757812 6.078125 -5.875 C 4.898438 -8 4.3125 -10.582031 4.3125 -13.625 L 4.3125 -32.875 L 9.71875 -32.875 L 9.71875 -14.34375 C 9.71875 -11.101562 10.535156 -8.613281 12.171875 -6.875 C 13.816406 -5.132812 16.0625 -4.265625 18.90625 -4.265625 C 21.820312 -4.265625 24.117188 -5.160156 25.796875 -6.953125 C 27.472656 -8.753906 28.3125 -11.375 28.3125 -14.8125 L 28.3125 -32.875 Z M 33.78125 -32.875 "/></g></g></g><g fill="#f77e65" fill-opacity="1"><g transform="translate(336.442231, 532.065761)"><g><path d="M 10.078125 -44.40625 L 10.078125 0 L 4.625 0 L 4.625 -44.40625 Z M 10.078125 -44.40625 "/></g></g></g><g fill="#f77e65" fill-opacity="1"><g transform="translate(351.202225, 532.065761)"><g><path d="M 2.578125 -16.5625 C 2.578125 -19.914062 3.253906 -22.863281 4.609375 -25.40625 C 5.972656 -27.945312 7.84375 -29.914062 10.21875 -31.3125 C 12.601562 -32.71875 15.273438 -33.421875 18.234375 -33.421875 C 20.796875 -33.421875 23.175781 -32.828125 25.375 -31.640625 C 27.582031 -30.460938 29.265625 -28.914062 30.421875 -27 L 30.421875 -44.40625 L 35.9375 -44.40625 L 35.9375 0 L 30.421875 0 L 30.421875 -6.1875 C 29.335938 -4.21875 27.734375 -2.601562 25.609375 -1.34375 C 23.492188 -0.0820312 21.019531 0.546875 18.1875 0.546875 C 15.257812 0.546875 12.601562 -0.171875 10.21875 -1.609375 C 7.84375 -3.054688 5.972656 -5.078125 4.609375 -7.671875 C 3.253906 -10.273438 2.578125 -13.238281 2.578125 -16.5625 Z M 30.421875 -16.5 C 30.421875 -18.976562 29.921875 -21.132812 28.921875 -22.96875 C 27.921875 -24.8125 26.566406 -26.222656 24.859375 -27.203125 C 23.160156 -28.191406 21.296875 -28.6875 19.265625 -28.6875 C 17.222656 -28.6875 15.359375 -28.203125 13.671875 -27.234375 C 11.992188 -26.273438 10.65625 -24.875 9.65625 -23.03125 C 8.65625 -21.195312 8.15625 -19.039062 8.15625 -16.5625 C 8.15625 -14.039062 8.65625 -11.847656 9.65625 -9.984375 C 10.65625 -8.128906 11.992188 -6.710938 13.671875 -5.734375 C 15.359375 -4.753906 17.222656 -4.265625 19.265625 -4.265625 C 21.296875 -4.265625 23.160156 -4.753906 24.859375 -5.734375 C 26.566406 -6.710938 27.921875 -8.128906 28.921875 -9.984375 C 29.921875 -11.847656 30.421875 -14.019531 30.421875 -16.5 Z M 30.421875 -16.5 "/></g></g></g><g fill="#f77e65" fill-opacity="1"><g transform="translate(391.76219, 532.065761)"><g><path d="M 20.640625 -33.484375 C 24.640625 -33.484375 27.878906 -32.269531 30.359375 -29.84375 C 32.835938 -27.425781 34.078125 -23.9375 34.078125 -19.375 L 34.078125 0 L 28.6875 0 L 28.6875 -18.59375 C 28.6875 -21.875 27.863281 -24.382812 26.21875 -26.125 C 24.582031 -27.863281 22.34375 -28.734375 19.5 -28.734375 C 16.625 -28.734375 14.332031 -27.832031 12.625 -26.03125 C 10.925781 -24.238281 10.078125 -21.625 10.078125 -18.1875 L 10.078125 0 L 4.625 0 L 4.625 -32.875 L 10.078125 -32.875 L 10.078125 -28.203125 C 11.160156 -29.878906 12.628906 -31.175781 14.484375 -32.09375 C 16.347656 -33.019531 18.398438 -33.484375 20.640625 -33.484375 Z M 20.640625 -33.484375 "/></g></g></g><g fill="#f77e65" fill-opacity="1"><g transform="translate(430.162151, 532.065761)"><g><path d="M 5.453125 -41.8125 L 11.515625 -41.8125 L 5.765625 -28.203125 L 1.921875 -28.203125 Z M 5.453125 -41.8125 "/></g></g></g><g fill="#f77e65" fill-opacity="1"><g transform="translate(443.302142, 532.065761)"><g><path d="M 11.28125 -28.375 L 11.28125 -9 C 11.28125 -7.394531 11.617188 -6.265625 12.296875 -5.609375 C 12.972656 -4.953125 14.15625 -4.625 15.84375 -4.625 L 19.859375 -4.625 L 19.859375 0 L 14.9375 0 C 11.894531 0 9.613281 -0.695312 8.09375 -2.09375 C 6.570312 -3.5 5.8125 -5.800781 5.8125 -9 L 5.8125 -28.375 L 1.5625 -28.375 L 1.5625 -32.875 L 5.8125 -32.875 L 5.8125 -41.15625 L 11.28125 -41.15625 L 11.28125 -32.875 L 19.859375 -32.875 L 19.859375 -28.375 Z M 11.28125 -28.375 "/></g></g></g><g fill="#f77e65" fill-opacity="1"><g transform="translate(465.142115, 532.065761)"><g/></g></g><g fill="#f77e65" fill-opacity="1"><g transform="translate(481.162103, 532.065761)"><g><path d="M 10.078125 -26.765625 C 11.203125 -28.722656 12.84375 -30.320312 15 -31.5625 C 17.15625 -32.800781 19.613281 -33.421875 22.375 -33.421875 C 25.332031 -33.421875 27.992188 -32.71875 30.359375 -31.3125 C 32.722656 -29.914062 34.582031 -27.945312 35.9375 -25.40625 C 37.300781 -22.863281 37.984375 -19.914062 37.984375 -16.5625 C 37.984375 -13.238281 37.300781 -10.273438 35.9375 -7.671875 C 34.582031 -5.078125 32.710938 -3.054688 30.328125 -1.609375 C 27.953125 -0.171875 25.300781 0.546875 22.375 0.546875 C 19.539062 0.546875 17.050781 -0.0703125 14.90625 -1.3125 C 12.769531 -2.5625 11.160156 -4.144531 10.078125 -6.0625 L 10.078125 0 L 4.625 0 L 4.625 -44.40625 L 10.078125 -44.40625 Z M 32.40625 -16.5625 C 32.40625 -19.039062 31.90625 -21.195312 30.90625 -23.03125 C 29.90625 -24.875 28.550781 -26.273438 26.84375 -27.234375 C 25.144531 -28.203125 23.273438 -28.6875 21.234375 -28.6875 C 19.234375 -28.6875 17.382812 -28.191406 15.6875 -27.203125 C 13.988281 -26.222656 12.628906 -24.800781 11.609375 -22.9375 C 10.585938 -21.082031 10.078125 -18.9375 10.078125 -16.5 C 10.078125 -14.019531 10.585938 -11.847656 11.609375 -9.984375 C 12.628906 -8.128906 13.988281 -6.710938 15.6875 -5.734375 C 17.382812 -4.753906 19.234375 -4.265625 21.234375 -4.265625 C 23.273438 -4.265625 25.144531 -4.753906 26.84375 -5.734375 C 28.550781 -6.710938 29.90625 -8.128906 30.90625 -9.984375 C 31.90625 -11.847656 32.40625 -14.039062 32.40625 -16.5625 Z M 32.40625 -16.5625 "/></g></g></g><g fill="#f77e65" fill-opacity="1"><g transform="translate(521.722068, 532.065761)"><g><path d="M 34.625 -17.703125 C 34.625 -16.660156 34.5625 -15.5625 34.4375 -14.40625 L 8.15625 -14.40625 C 8.351562 -11.164062 9.460938 -8.632812 11.484375 -6.8125 C 13.503906 -4.988281 15.957031 -4.078125 18.84375 -4.078125 C 21.195312 -4.078125 23.164062 -4.625 24.75 -5.71875 C 26.332031 -6.820312 27.441406 -8.296875 28.078125 -10.140625 L 33.953125 -10.140625 C 33.078125 -6.984375 31.316406 -4.410156 28.671875 -2.421875 C 26.035156 -0.441406 22.757812 0.546875 18.84375 0.546875 C 15.71875 0.546875 12.925781 -0.148438 10.46875 -1.546875 C 8.007812 -2.953125 6.078125 -4.945312 4.671875 -7.53125 C 3.273438 -10.113281 2.578125 -13.101562 2.578125 -16.5 C 2.578125 -19.894531 3.253906 -22.875 4.609375 -25.4375 C 5.972656 -28 7.882812 -29.96875 10.34375 -31.34375 C 12.8125 -32.726562 15.644531 -33.421875 18.84375 -33.421875 C 21.957031 -33.421875 24.710938 -32.738281 27.109375 -31.375 C 29.515625 -30.019531 31.367188 -28.148438 32.671875 -25.765625 C 33.972656 -23.390625 34.625 -20.703125 34.625 -17.703125 Z M 28.984375 -18.84375 C 28.984375 -20.914062 28.519531 -22.703125 27.59375 -24.203125 C 26.675781 -25.703125 25.425781 -26.84375 23.84375 -27.625 C 22.269531 -28.40625 20.519531 -28.796875 18.59375 -28.796875 C 15.832031 -28.796875 13.484375 -27.914062 11.546875 -26.15625 C 9.609375 -24.394531 8.5 -21.957031 8.21875 -18.84375 Z M 28.984375 -18.84375 "/></g></g></g><g fill="#f77e65" fill-opacity="1"><g transform="translate(558.922048, 532.065761)"><g/></g></g><g fill="#f77e65" fill-opacity="1"><g transform="translate(574.942036, 532.065761)"><g><path d="M 20.9375 -33.484375 C 23.414062 -33.484375 25.65625 -32.953125 27.65625 -31.890625 C 29.65625 -30.828125 31.222656 -29.234375 32.359375 -27.109375 C 33.503906 -24.992188 34.078125 -22.414062 34.078125 -19.375 L 34.078125 0 L 28.6875 0 L 28.6875 -18.59375 C 28.6875 -21.875 27.863281 -24.382812 26.21875 -26.125 C 24.582031 -27.863281 22.34375 -28.734375 19.5 -28.734375 C 16.625 -28.734375 14.332031 -27.832031 12.625 -26.03125 C 10.925781 -24.238281 10.078125 -21.625 10.078125 -18.1875 L 10.078125 0 L 4.625 0 L 4.625 -44.40625 L 10.078125 -44.40625 L 10.078125 -28.203125 C 11.160156 -29.878906 12.648438 -31.175781 14.546875 -32.09375 C 16.453125 -33.019531 18.582031 -33.484375 20.9375 -33.484375 Z M 20.9375 -33.484375 "/></g></g></g><g fill="#f77e65" fill-opacity="1"><g transform="translate(613.341997, 532.065761)"><g><path d="M 34.625 -17.703125 C 34.625 -16.660156 34.5625 -15.5625 34.4375 -14.40625 L 8.15625 -14.40625 C 8.351562 -11.164062 9.460938 -8.632812 11.484375 -6.8125 C 13.503906 -4.988281 15.957031 -4.078125 18.84375 -4.078125 C 21.195312 -4.078125 23.164062 -4.625 24.75 -5.71875 C 26.332031 -6.820312 27.441406 -8.296875 28.078125 -10.140625 L 33.953125 -10.140625 C 33.078125 -6.984375 31.316406 -4.410156 28.671875 -2.421875 C 26.035156 -0.441406 22.757812 0.546875 18.84375 0.546875 C 15.71875 0.546875 12.925781 -0.148438 10.46875 -1.546875 C 8.007812 -2.953125 6.078125 -4.945312 4.671875 -7.53125 C 3.273438 -10.113281 2.578125 -13.101562 2.578125 -16.5 C 2.578125 -19.894531 3.253906 -22.875 4.609375 -25.4375 C 5.972656 -28 7.882812 -29.96875 10.34375 -31.34375 C 12.8125 -32.726562 15.644531 -33.421875 18.84375 -33.421875 C 21.957031 -33.421875 24.710938 -32.738281 27.109375 -31.375 C 29.515625 -30.019531 31.367188 -28.148438 32.671875 -25.765625 C 33.972656 -23.390625 34.625 -20.703125 34.625 -17.703125 Z M 28.984375 -18.84375 C 28.984375 -20.914062 28.519531 -22.703125 27.59375 -24.203125 C 26.675781 -25.703125 25.425781 -26.84375 23.84375 -27.625 C 22.269531 -28.40625 20.519531 -28.796875 18.59375 -28.796875 C 15.832031 -28.796875 13.484375 -27.914062 11.546875 -26.15625 C 9.609375 -24.394531 8.5 -21.957031 8.21875 -18.84375 Z M 28.984375 -18.84375 "/></g></g></g><g fill="#f77e65" fill-opacity="1"><g transform="translate(650.541977, 532.065761)"><g><path d="M 10.078125 -27.546875 C 11.035156 -29.421875 12.40625 -30.878906 14.1875 -31.921875 C 15.96875 -32.960938 18.140625 -33.484375 20.703125 -33.484375 L 20.703125 -27.84375 L 19.265625 -27.84375 C 13.140625 -27.84375 10.078125 -24.519531 10.078125 -17.875 L 10.078125 0 L 4.625 0 L 4.625 -32.875 L 10.078125 -32.875 Z M 10.078125 -27.546875 "/></g></g></g><g fill="#f77e65" fill-opacity="1"><g transform="translate(672.921951, 532.065761)"><g><path d="M 34.625 -17.703125 C 34.625 -16.660156 34.5625 -15.5625 34.4375 -14.40625 L 8.15625 -14.40625 C 8.351562 -11.164062 9.460938 -8.632812 11.484375 -6.8125 C 13.503906 -4.988281 15.957031 -4.078125 18.84375 -4.078125 C 21.195312 -4.078125 23.164062 -4.625 24.75 -5.71875 C 26.332031 -6.820312 27.441406 -8.296875 28.078125 -10.140625 L 33.953125 -10.140625 C 33.078125 -6.984375 31.316406 -4.410156 28.671875 -2.421875 C 26.035156 -0.441406 22.757812 0.546875 18.84375 0.546875 C 15.71875 0.546875 12.925781 -0.148438 10.46875 -1.546875 C 8.007812 -2.953125 6.078125 -4.945312 4.671875 -7.53125 C 3.273438 -10.113281 2.578125 -13.101562 2.578125 -16.5 C 2.578125 -19.894531 3.253906 -22.875 4.609375 -25.4375 C 5.972656 -28 7.882812 -29.96875 10.34375 -31.34375 C 12.8125 -32.726562 15.644531 -33.421875 18.84375 -33.421875 C 21.957031 -33.421875 24.710938 -32.738281 27.109375 -31.375 C 29.515625 -30.019531 31.367188 -28.148438 32.671875 -25.765625 C 33.972656 -23.390625 34.625 -20.703125 34.625 -17.703125 Z M 28.984375 -18.84375 C 28.984375 -20.914062 28.519531 -22.703125 27.59375 -24.203125 C 26.675781 -25.703125 25.425781 -26.84375 23.84375 -27.625 C 22.269531 -28.40625 20.519531 -28.796875 18.59375 -28.796875 C 15.832031 -28.796875 13.484375 -27.914062 11.546875 -26.15625 C 9.609375 -24.394531 8.5 -21.957031 8.21875 -18.84375 Z M 28.984375 -18.84375 "/></g></g></g><g fill="#f77e65" fill-opacity="1"><g transform="translate(710.121931, 532.065761)"><g><path d="M 6.359375 0.359375 C 5.316406 0.359375 4.4375 0 3.71875 -0.71875 C 3 -1.4375 2.640625 -2.316406 2.640625 -3.359375 C 2.640625 -4.398438 3 -5.28125 3.71875 -6 C 4.4375 -6.71875 5.316406 -7.078125 6.359375 -7.078125 C 7.359375 -7.078125 8.207031 -6.71875 8.90625 -6 C 9.601562 -5.28125 9.953125 -4.398438 9.953125 -3.359375 C 9.953125 -2.316406 9.601562 -1.4375 8.90625 -0.71875 C 8.207031 0 7.359375 0.359375 6.359375 0.359375 Z M 6.359375 0.359375 "/></g></g></g><g fill="#f77e65" fill-opacity="1"><g transform="translate(722.721921, 532.065761)"><g><path d="M 6.359375 0.359375 C 5.316406 0.359375 4.4375 0 3.71875 -0.71875 C 3 -1.4375 2.640625 -2.316406 2.640625 -3.359375 C 2.640625 -4.398438 3 -5.28125 3.71875 -6 C 4.4375 -6.71875 5.316406 -7.078125 6.359375 -7.078125 C 7.359375 -7.078125 8.207031 -6.71875 8.90625 -6 C 9.601562 -5.28125 9.953125 -4.398438 9.953125 -3.359375 C 9.953125 -2.316406 9.601562 -1.4375 8.90625 -0.71875 C 8.207031 0 7.359375 0.359375 6.359375 0.359375 Z M 6.359375 0.359375 "/></g></g></g><g fill="#f77e65" fill-opacity="1"><g transform="translate(735.321912, 532.065761)"><g><path d="M 6.359375 0.359375 C 5.316406 0.359375 4.4375 0 3.71875 -0.71875 C 3 -1.4375 2.640625 -2.316406 2.640625 -3.359375 C 2.640625 -4.398438 3 -5.28125 3.71875 -6 C 4.4375 -6.71875 5.316406 -7.078125 6.359375 -7.078125 C 7.359375 -7.078125 8.207031 -6.71875 8.90625 -6 C 9.601562 -5.28125 9.953125 -4.398438 9.953125 -3.359375 C 9.953125 -2.316406 9.601562 -1.4375 8.90625 -0.71875 C 8.207031 0 7.359375 0.359375 6.359375 0.359375 Z M 6.359375 0.359375 "/></g></g></g></svg>